<?xml version="1.0" encoding="UTF-8" standalone="no"?><svg xmlns="http://www.w3.org/2000/svg" xmlns:xlink="http://www.w3.org/1999/xlink" fill="#000000" height="489.9" preserveAspectRatio="xMidYMid meet" version="1" viewBox="0.0 -0.1 338.2 489.9" width="338.2" zoomAndPan="magnify"><g fill-rule="evenodd"><g id="change1_1"><path d="M 253.679688 57.023438 C 254.03125 53.988281 255.511719 51.097656 256.78125 48.210938 C 259.667969 41.441406 262.980469 34.324219 266.367188 27.558594 C 266.929688 26.289062 268.621094 22.695312 269.820312 24.246094 C 270.59375 25.164062 269.046875 27.558594 268.550781 28.617188 C 266.4375 32.84375 264.53125 36.933594 262.417969 41.160156 C 259.527344 46.941406 257.132812 52.863281 253.679688 57.023438 Z M 217.167969 19.382812 C 220.761719 18.675781 218.222656 23.679688 217.730469 25.089844 C 217.308594 26.289062 216.957031 28.96875 215.898438 29.109375 C 214.558594 29.179688 214.277344 26.921875 214.417969 25.230469 C 214.628906 22.621094 215.613281 19.664062 217.167969 19.382812 Z M 73.234375 19.664062 C 73.304688 19.664062 73.375 19.664062 73.445312 19.664062 C 75.207031 21.988281 76.617188 24.527344 78.167969 26.992188 C 82.75 34.183594 87.332031 41.65625 91.910156 49.125 C 97.199219 57.792969 100.371094 68.300781 105.730469 77.109375 C 106.433594 78.234375 107.632812 79.4375 107.632812 80.984375 C 103.964844 81.761719 102.417969 78.308594 100.9375 75.980469 C 96.351562 68.367188 92.828125 60.191406 88.671875 52.089844 C 84.160156 43.203125 78.589844 34.039062 74.21875 24.457031 C 73.515625 22.976562 72.527344 21.214844 72.882812 19.945312 C 72.953125 19.804688 73.09375 19.734375 73.234375 19.664062 Z M 134.699219 43.488281 C 135.683594 43.136719 136.316406 43.980469 136.460938 45.320312 C 136.671875 46.941406 136.8125 50.394531 136.035156 50.675781 C 134.0625 51.3125 132.796875 44.050781 134.699219 43.488281 Z M 211.457031 49.546875 C 212.585938 51.097656 212.230469 53.636719 212.089844 55.964844 C 211.878906 60.6875 211.386719 64.707031 210.75 69.214844 C 210.609375 70.625 210.539062 74.78125 208.992188 74.640625 C 207.71875 74.5 208.140625 70.410156 208.214844 68.441406 C 208.566406 64.070312 208.992188 59.414062 209.695312 55.539062 C 210.046875 53.496094 210.539062 50.675781 211.316406 49.40625 C 211.457031 49.40625 211.457031 49.480469 211.457031 49.546875 Z M 144.070312 75.980469 C 142.589844 74.992188 142.449219 72.527344 141.746094 70.484375 C 141.464844 69.566406 141.253906 68.511719 140.902344 67.453125 C 140.550781 66.464844 139.914062 65.410156 140.125 64.351562 C 140.265625 63.714844 141.183594 63.011719 142.027344 63.363281 C 143.4375 63.929688 143.929688 67.382812 144.28125 69.214844 C 144.777344 71.539062 145.410156 74.78125 144.070312 75.980469 Z M 22.976562 66.464844 C 26.992188 67.734375 31.082031 71.328125 34.1875 73.796875 C 41.375 79.363281 47.292969 84.722656 53.640625 90.992188 C 55.824219 93.179688 58.429688 95.363281 60.40625 97.972656 C 60.96875 98.746094 61.957031 99.878906 61.039062 101.003906 C 59.699219 101.425781 58.785156 100.230469 58.082031 99.523438 C 47.855469 90.148438 37.851562 80.703125 27.066406 71.539062 C 25.515625 70.203125 23.257812 68.511719 22.695312 66.816406 C 22.695312 66.605469 22.835938 66.535156 22.976562 66.464844 Z M 236.195312 92.898438 C 235.773438 88.386719 237.328125 84.652344 238.945312 80.636719 C 239.648438 79.011719 240.5 77.25 241.414062 75.347656 C 241.976562 74.078125 242.964844 71.328125 244.585938 70.90625 C 245.714844 70.625 246.699219 71.328125 246.910156 71.964844 C 247.546875 73.796875 245.644531 76.757812 245.078125 77.953125 C 243.246094 81.832031 241.695312 85.074219 239.863281 88.808594 C 239.015625 90.5 237.960938 92.40625 236.195312 92.898438 Z M 273.484375 141.746094 C 273.835938 138.644531 276.515625 136.316406 278.488281 134.273438 C 284.550781 127.789062 290.964844 121.304688 297.238281 114.890625 C 301.46875 110.660156 306.050781 106.714844 310.277344 102.554688 C 314.648438 98.253906 319.230469 94.164062 323.457031 89.796875 C 323.597656 89.796875 323.671875 89.796875 323.671875 89.9375 C 320.992188 95.363281 316.832031 99.878906 312.746094 104.390625 C 308.660156 108.898438 304.5 113.269531 300.339844 117.636719 C 294.207031 124.195312 287.652344 130.609375 280.886719 136.671875 C 279.828125 137.65625 278.628906 138.714844 277.433594 139.699219 C 276.375 140.617188 275.035156 141.671875 273.484375 141.746094 Z M 261.996094 101.988281 C 263.546875 101.640625 265.589844 102.410156 265.097656 104.8125 C 264.816406 106.148438 261.292969 109.109375 259.457031 108.476562 C 256.707031 107.628906 258.964844 103.753906 260.445312 102.625 C 260.796875 102.34375 261.433594 102.0625 261.996094 101.988281 Z M 79.085938 113.269531 C 80.917969 113.480469 85.570312 116.722656 85.074219 118.695312 C 84.863281 119.1875 84.089844 119.472656 83.59375 119.472656 C 82.679688 119.328125 81.835938 117.710938 81.058594 116.792969 C 80.140625 115.664062 78.804688 114.605469 79.085938 113.269531 Z M 37.921875 142.519531 C 36.296875 142.589844 34.957031 141.605469 33.480469 140.96875 C 29.320312 139.207031 25.515625 136.882812 21.710938 134.554688 C 19.308594 133.144531 16.703125 131.664062 14.167969 129.972656 C 11.980469 128.492188 8.597656 126.519531 7.609375 124.195312 C 7.609375 123.984375 7.75 123.914062 7.824219 123.84375 C 10.433594 124.476562 13.746094 126.730469 15.929688 128.070312 C 22.414062 132.019531 28.828125 135.1875 34.957031 139.488281 C 36.085938 140.265625 37.640625 141.039062 37.921875 142.519531 Z M 139.773438 138.574219 C 141.605469 138.433594 142.308594 140.6875 142.101562 143.085938 C 141.960938 144.988281 140.6875 146.679688 140.6875 148.160156 C 140.617188 149.429688 141.605469 151.261719 141.886719 152.742188 C 142.664062 156.476562 142.308594 160.917969 141.113281 163.808594 C 140.40625 165.5 139.136719 166.695312 138.433594 168.175781 C 137.308594 170.714844 137.589844 175.296875 135.050781 175.367188 C 131.949219 175.507812 132.019531 169.375 131.453125 166.625 C 131.242188 165.425781 130.890625 164.300781 130.820312 163.242188 C 130.609375 160.777344 131.59375 158.097656 132.160156 155.351562 C 132.726562 152.671875 132.371094 149.429688 133.359375 146.890625 C 133.921875 145.410156 134.90625 143.859375 136.035156 142.308594 C 136.8125 141.183594 138.292969 138.644531 139.773438 138.574219 Z M 334.382812 146.324219 C 334.171875 147.523438 332.976562 148.511719 331.988281 149.214844 C 330.859375 149.921875 329.59375 150.554688 328.464844 151.1875 C 323.671875 153.726562 319.160156 156.335938 314.15625 158.941406 C 313.097656 159.4375 311.96875 160.070312 310.417969 160.707031 C 309.785156 160.917969 306.824219 162.113281 306.402344 160.777344 C 306.121094 159.71875 308.023438 158.308594 308.726562 157.816406 C 311.828125 155.632812 315.496094 154.007812 318.949219 152.246094 C 321.273438 151.117188 323.597656 149.921875 325.996094 148.867188 C 328.535156 147.734375 331.5625 146.324219 334.382812 146.324219 Z M 55.964844 149.992188 C 57.164062 149.570312 60.050781 151.050781 59.910156 152.527344 C 59.769531 154.429688 57.867188 153.375 56.738281 152.527344 C 56.175781 152.105469 53.992188 150.554688 55.964844 149.992188 Z M 102.203125 153.304688 C 106.855469 152.601562 105.09375 159.648438 101.289062 159.226562 C 100.089844 159.152344 99.382812 158.097656 99.3125 157.179688 C 99.03125 154.925781 100.582031 153.515625 102.203125 153.304688 Z M 72.457031 161.761719 C 75.207031 160.777344 75.488281 165.425781 73.445312 165.640625 C 71.542969 165.851562 70.765625 162.394531 72.457031 161.761719 Z M 99.664062 170.503906 C 101.074219 170.292969 102.90625 171.699219 101.992188 173.816406 C 101.570312 174.660156 98.46875 178.042969 97.410156 175.933594 C 96.84375 174.730469 97.550781 171.84375 98.328125 171.066406 C 98.679688 170.714844 99.171875 170.644531 99.664062 170.503906 Z M 288.710938 171.066406 C 288.429688 173.109375 286.101562 174.097656 284.128906 175.296875 C 282.929688 176 281.660156 177.199219 280.253906 176.847656 C 279.617188 176.707031 279.261719 175.933594 279.335938 175.296875 C 279.476562 174.167969 282.015625 173.390625 283.421875 172.761719 C 285.46875 171.84375 286.945312 171.066406 288.710938 171.066406 Z M 4.507812 180.230469 C 10.921875 180.371094 16.632812 181.992188 22.132812 183.332031 C 27.066406 184.601562 32 185.726562 36.582031 186.925781 C 43.769531 188.691406 50.324219 191.226562 57.09375 193.625 C 58.082031 193.972656 59.277344 194.394531 60.40625 194.890625 C 61.253906 195.242188 62.800781 195.527344 62.800781 196.863281 C 61.605469 197.5 60.195312 196.863281 58.925781 196.65625 C 44.335938 194.113281 31.296875 189.816406 17.902344 185.800781 C 13.179688 184.320312 8.175781 183.402344 4.226562 180.726562 C 4.15625 180.445312 4.367188 180.371094 4.507812 180.230469 Z M 134.0625 181.78125 C 135.191406 181.570312 136.035156 182.203125 136.105469 183.261719 C 136.246094 185.726562 132.652344 185.585938 132.726562 183.332031 C 132.726562 182.839844 133.007812 182.0625 134.0625 181.78125 Z M 98.679688 185.800781 C 101.074219 185.445312 103.402344 187.421875 102.765625 190.308594 C 102.484375 191.367188 101.429688 192.425781 100.722656 193.550781 C 99.734375 195.242188 99.242188 196.515625 97.199219 195.949219 C 94.238281 195.175781 94.308594 189.886719 95.859375 187.421875 C 96.566406 186.433594 97.625 185.941406 98.679688 185.800781 Z M 335.300781 187.351562 C 335.933594 188.195312 334.171875 189.039062 333.398438 189.460938 C 330.4375 190.941406 326.773438 192.070312 323.457031 193.339844 C 314.578125 196.515625 304.851562 199.191406 295.40625 202.011719 C 291.949219 203.066406 288.496094 203.914062 284.410156 204.902344 C 283.914062 205.042969 281.238281 206.027344 281.027344 204.902344 C 280.746094 203.84375 283.210938 203.351562 283.773438 203.136719 C 291.667969 200.601562 299.847656 198.273438 307.457031 195.738281 C 314.085938 193.480469 320.710938 191.4375 327.6875 189.253906 C 329.945312 188.476562 333.398438 187.140625 335.300781 187.351562 Z M 223.085938 205.464844 C 225.625 205.109375 228.019531 207.367188 228.019531 209.976562 C 228.019531 211.3125 227.386719 212.445312 226.683594 213.429688 C 224.851562 216.039062 223.648438 219.984375 222.523438 223.507812 C 221.394531 227.03125 220.269531 230.699219 219.703125 234.996094 C 219.5625 236.339844 219.632812 237.746094 219.421875 239.085938 C 219.28125 239.863281 218.785156 240.636719 218.644531 241.554688 C 218.222656 243.601562 218.292969 245.851562 218.082031 248.25 C 217.378906 256.496094 218.785156 265.800781 218.929688 272.707031 C 219.210938 283.847656 218.222656 297.800781 218.152344 308.867188 C 218.152344 311.6875 218.082031 314.578125 217.941406 317.253906 C 217.730469 321.765625 218.644531 325.289062 217.519531 329.871094 C 217.097656 331.5625 216.320312 332.550781 215.191406 332.550781 C 212.9375 332.550781 212.867188 329.449219 212.796875 326.914062 C 212.585938 320.496094 211.808594 313.167969 212.089844 305.414062 C 212.304688 300.550781 212.445312 295.757812 212.445312 290.613281 C 212.445312 284.832031 213.007812 280.671875 212.65625 275.457031 C 212.515625 272.707031 212.089844 269.816406 212.089844 266.714844 C 212.089844 257.414062 212.371094 249.023438 212.867188 241.414062 C 213.21875 235.84375 212.230469 229.5 212.867188 223.933594 C 213.5 218.574219 214.769531 212.867188 217.308594 209.339844 C 217.800781 208.636719 218.859375 208.214844 219.703125 207.226562 C 220.832031 206.027344 221.609375 205.675781 223.085938 205.464844 Z M 92.6875 214.839844 C 92.40625 211.386719 96.210938 209.761719 98.398438 211.878906 C 100.300781 213.710938 99.101562 217.800781 96.210938 218.082031 C 94.308594 218.289062 93.253906 216.53125 92.6875 214.839844 Z M 129.484375 218.222656 C 130.820312 217.941406 130.960938 220.617188 130.960938 221.605469 C 131.03125 226.964844 130.117188 232.460938 129.410156 238.523438 C 128.988281 241.835938 128.492188 243.949219 127.929688 246.628906 C 127.507812 248.882812 127.082031 253.042969 125.183594 253.042969 C 122.644531 252.972656 123.910156 246.980469 124.335938 244.726562 C 124.617188 242.890625 124.761719 241.621094 125.039062 240.214844 C 125.394531 238.734375 125.886719 237.464844 126.171875 236.125 C 126.875 232.742188 126.875 229.992188 127.15625 226.609375 C 127.367188 224.285156 127.578125 218.574219 129.484375 218.222656 Z M 92.546875 229.992188 C 94.59375 229.710938 96.210938 231.121094 96.351562 233.234375 C 96.421875 234.574219 95.222656 238.308594 94.308594 239.015625 C 94.097656 239.15625 93.464844 239.367188 93.324219 239.4375 C 89.445312 240.003906 88.246094 233.308594 90.363281 231.050781 C 90.925781 230.417969 91.628906 230.132812 92.546875 229.992188 Z M 320.285156 234.433594 C 321.203125 234.433594 324.234375 234.222656 326.984375 234.433594 C 328.957031 234.574219 332.058594 234.785156 332.199219 235.984375 C 332.414062 237.746094 327.757812 238.027344 326.136719 238.238281 C 321.0625 238.734375 316.269531 239.648438 311.054688 239.722656 C 302.101562 239.933594 291.316406 241.199219 281.308594 242.328125 C 279.617188 242.46875 274.964844 243.175781 274.824219 241.199219 C 274.683594 239.648438 277.363281 239.296875 279.121094 238.871094 C 288.355469 236.6875 297.945312 236.199219 308.09375 235.210938 C 311.828125 234.855469 315.917969 234.644531 320.285156 234.433594 Z M 21.917969 237.746094 C 20.652344 238.734375 18.746094 238.308594 17.054688 238.238281 C 15.292969 238.101562 13.53125 237.957031 11.839844 237.746094 C 8.316406 237.394531 4.507812 237.675781 2.46875 235.914062 C 5.285156 234.785156 10.007812 235.421875 13.953125 235.632812 C 15.507812 235.773438 17.199219 235.84375 18.679688 235.984375 C 20.015625 236.125 21.851562 236.199219 21.917969 237.746094 Z M 53.496094 236.902344 C 54.554688 235.914062 56.738281 236.199219 58.855469 236.339844 C 60.40625 236.40625 63.15625 236.480469 63.015625 237.746094 C 62.875 239.226562 59.417969 238.238281 58.289062 238.101562 C 56.316406 237.816406 54.484375 237.816406 53.496094 236.902344 Z M 90.574219 252.269531 C 91.347656 252.128906 92.757812 252.339844 93.324219 253.253906 C 94.519531 255.019531 93.039062 257.976562 92.6875 260.019531 C 91.769531 265.023438 91.207031 269.816406 90.996094 275.175781 C 90.925781 277.640625 91.207031 281.730469 89.941406 282.082031 C 88.882812 282.433594 87.824219 281.097656 87.332031 280.109375 C 85.921875 277.148438 86.273438 271.722656 86.484375 268.058594 C 86.628906 265.730469 86.835938 262.558594 87.050781 260.230469 C 87.332031 256.707031 87.398438 252.761719 90.574219 252.269531 Z M 103.964844 265.09375 C 103.964844 264.25 125.464844 260.585938 127.648438 260.304688 C 140.40625 258.753906 159.578125 256.425781 171.492188 261.78125 C 172.902344 262.414062 175.507812 263.96875 175.296875 265.519531 C 175.15625 266.507812 173.324219 267 172.617188 267.066406 C 171.207031 267.28125 169.730469 266.855469 168.390625 266.714844 C 154.785156 265.449219 137.730469 267.066406 123.984375 267.632812 C 120.742188 267.773438 103.753906 268.058594 103.964844 265.09375 Z M 283.988281 270.59375 C 284.550781 270.59375 288.214844 270.171875 288.496094 271.511719 C 288.78125 272.707031 287.160156 273.132812 285.890625 273.132812 C 284.058594 273.203125 279.6875 273.132812 279.546875 271.933594 C 279.476562 270.945312 280.957031 270.875 281.308594 270.804688 C 282.296875 270.664062 282.859375 270.664062 283.988281 270.59375 Z M 306.683594 272.355469 C 308.375 272.144531 311.195312 272.003906 311.617188 273.625 C 312.394531 276.230469 309.082031 275.457031 307.175781 275.03125 C 306.191406 274.820312 304.851562 274.679688 304.78125 273.695312 C 304.710938 272.496094 306.050781 272.496094 306.683594 272.355469 Z M 333.890625 276.445312 C 332.90625 274.261719 338.191406 273.554688 337.488281 275.949219 C 337.203125 276.9375 334.597656 276.160156 333.890625 276.445312 Z M 0 293.921875 C 0.421875 292.867188 1.691406 292.304688 2.675781 291.808594 C 6.128906 290.261719 10.21875 289.484375 14.167969 288.425781 C 29.460938 284.339844 47.085938 280.671875 62.378906 277.21875 C 62.941406 277.148438 64.070312 276.9375 64.28125 277.710938 C 64.5625 278.910156 61.675781 279.476562 61.179688 279.6875 C 52.367188 282.574219 42.152344 284.410156 32.703125 286.523438 C 27.066406 287.789062 21.636719 288.988281 16.28125 290.261719 C 10.855469 291.597656 5.566406 293.289062 0 293.921875 Z M 329.523438 310.277344 C 328.605469 310.910156 327.335938 310.558594 326.347656 310.417969 C 319.089844 309.503906 312.394531 307.316406 305.554688 305.695312 C 299.847656 304.285156 293.714844 302.949219 288.074219 301.253906 C 286.3125 300.691406 284.480469 300.128906 283.5625 298.71875 C 283.707031 298.082031 284.410156 298.292969 284.976562 298.226562 C 288.851562 297.871094 293.363281 299.210938 297.238281 300.058594 C 305.273438 301.746094 312.675781 303.367188 320.144531 305.554688 C 321.910156 306.046875 323.8125 306.609375 325.433594 307.316406 C 326.984375 307.953125 329.027344 308.585938 329.523438 310.277344 Z M 61.179688 308.304688 C 60.6875 309.921875 58.503906 309.992188 57.09375 310.558594 C 55.539062 311.050781 53.992188 312.039062 52.441406 311.96875 C 52.863281 310.207031 54.90625 309.433594 56.808594 308.726562 C 58.222656 308.234375 60.050781 307.316406 61.179688 308.304688 Z M 114.820312 310.769531 C 116.230469 310.277344 118.347656 311.121094 119.894531 311.546875 C 127.367188 313.378906 136.246094 314.507812 144.777344 314.929688 C 147.949219 315.070312 151.542969 314.929688 155.28125 314.929688 C 162.117188 314.929688 168.671875 314.152344 175.15625 313.378906 C 176.777344 313.238281 178.539062 313.097656 180.160156 312.886719 C 183.824219 312.25 191.789062 310.910156 194.609375 312.601562 C 195.457031 313.097656 196.089844 314.226562 196.160156 315.070312 C 196.441406 318.664062 191.789062 319.863281 188.761719 320.78125 C 185.238281 321.976562 181.148438 321.976562 177.90625 322.117188 C 173.746094 322.328125 170.292969 322.257812 166.625 322.257812 C 156.335938 322.117188 143.71875 320.425781 133.148438 318.523438 C 128.28125 317.605469 122.433594 316.269531 117.640625 314.363281 C 116.300781 313.871094 113.695312 312.957031 113.902344 311.617188 C 113.976562 311.121094 114.1875 310.984375 114.820312 310.769531 Z M 25.304688 322.328125 C 25.445312 323.246094 24.457031 323.386719 23.894531 323.671875 C 21.074219 325.21875 17.621094 326.488281 14.378906 327.757812 C 13.109375 328.25 11.628906 328.957031 10.292969 328.675781 C 10.574219 327.476562 12.050781 326.980469 13.179688 326.417969 C 15.433594 325.433594 17.621094 324.375 20.015625 323.386719 C 21.214844 322.824219 22.625 322.1875 23.679688 322.046875 C 24.101562 321.976562 25.023438 321.839844 25.304688 322.328125 Z M 291.808594 332.832031 C 288.144531 331.492188 283.847656 331.214844 280.109375 329.519531 C 277.714844 328.464844 275.386719 327.121094 272.710938 325.714844 C 272.003906 325.289062 270.804688 324.726562 270.734375 324.023438 C 270.523438 322.824219 271.511719 322.472656 272.710938 322.683594 C 274.402344 323.03125 276.375 323.953125 278.136719 324.65625 C 281.660156 326.136719 284.269531 328.179688 287.300781 330.085938 C 288.851562 331.140625 290.542969 331.773438 291.808594 332.832031 Z M 76.40625 334.664062 C 77.675781 334.523438 78.804688 335.367188 78.730469 336.851562 C 78.664062 338.542969 76.335938 339.527344 74.996094 338.398438 C 73.515625 337.132812 74.574219 334.808594 76.40625 334.664062 Z M 98.539062 337.839844 C 99.3125 337.695312 100.015625 337.90625 100.511719 338.472656 C 101.5 339.671875 101.921875 345.238281 100.300781 345.589844 C 97.410156 346.222656 94.734375 338.472656 98.539062 337.839844 Z M 301.257812 339.246094 C 302.59375 338.683594 304.640625 340.023438 304.429688 341.5 C 304.003906 344.324219 298.789062 340.304688 301.257812 339.246094 Z M 198.488281 341.714844 C 200.671875 341.644531 203.984375 342.277344 203.84375 345.449219 C 203.351562 353.273438 108.054688 348.269531 112.5625 347.144531 C 117.007812 346.011719 122.011719 345.941406 127.367188 345.378906 C 132.726562 344.816406 138.996094 344.253906 144.988281 344.464844 C 151.402344 344.746094 158.378906 344.464844 165.007812 344.464844 C 167.894531 344.464844 170.785156 344.886719 173.535156 344.675781 C 176.355469 344.535156 179.101562 344.324219 181.78125 344.179688 C 183.191406 344.039062 184.886719 344.253906 185.871094 344.179688 C 186.714844 344.039062 187.5625 343.828125 188.546875 343.6875 C 190.242188 343.546875 192.074219 343.6875 193.269531 343.402344 C 195.175781 342.84375 195.878906 341.785156 198.488281 341.714844 Z M 68.863281 343.265625 C 69.003906 343.265625 69.078125 343.265625 69.144531 343.265625 C 69.21875 344.886719 67.453125 345.660156 66.46875 346.4375 C 63.15625 349.042969 59.839844 351.792969 56.386719 354.328125 C 51.875 357.714844 47.011719 360.886719 42.5 364.269531 C 34.46875 370.1875 26.851562 376.464844 18.820312 382.386719 C 17.832031 383.160156 16.421875 384.640625 14.941406 383.867188 C 14.589844 382.175781 16.210938 381.1875 17.128906 380.339844 C 30.660156 368.289062 46.800781 359.195312 61.816406 348.339844 C 62.941406 347.566406 64.140625 346.71875 65.269531 345.941406 C 66.535156 345.027344 67.523438 343.828125 68.863281 343.265625 Z M 255.226562 350.3125 C 257.132812 350.664062 259.175781 352.710938 261.011719 354.117188 C 262.769531 355.460938 264.53125 356.796875 266.082031 357.996094 C 269.539062 360.605469 273.273438 363 276.65625 365.253906 C 280.320312 367.652344 283.5625 370.328125 286.945312 372.867188 C 290.402344 375.476562 294.136719 377.519531 297.167969 380.410156 C 296.039062 380.480469 295.125 379.636719 294.277344 379.214844 C 287.511719 375.546875 281.378906 370.964844 274.894531 366.945312 C 271.226562 364.621094 267.632812 362.222656 264.179688 359.546875 C 262.558594 358.210938 260.9375 356.726562 259.316406 355.320312 C 257.695312 353.90625 255.792969 352.78125 254.875 350.808594 C 255.015625 350.664062 255.085938 350.453125 255.226562 350.3125 Z M 329.664062 351.019531 C 331.210938 350.878906 335.019531 352.144531 335.089844 354.191406 C 335.160156 357.21875 331.496094 355.738281 330.015625 354.894531 C 329.308594 354.472656 327.546875 353.90625 327.546875 352.570312 C 327.546875 351.367188 328.675781 351.019531 329.664062 351.019531 Z M 249.449219 373.011719 C 248.039062 373.292969 246.628906 372.375 245.644531 371.460938 C 244.585938 370.613281 243.246094 369.554688 243.035156 368.5 C 242.894531 367.160156 243.953125 365.820312 245.503906 366.453125 C 245.996094 366.734375 246.628906 368.144531 247.191406 368.78125 C 248.179688 370.1875 249.519531 371.035156 249.449219 373.011719 Z M 85.289062 369.34375 C 85.429688 371.035156 84.019531 372.585938 83.03125 373.996094 C 76.265625 383.867188 67.875 392.675781 60.6875 402.332031 C 53.570312 411.917969 46.800781 422 38.90625 431.160156 C 37.851562 432.429688 36.441406 433.910156 34.394531 433.628906 C 33.550781 432.289062 33.972656 431.375 34.253906 430.523438 C 35.242188 427.636719 37.566406 424.605469 39.46875 421.785156 C 43.277344 416.078125 46.941406 411.003906 51.171875 405.714844 C 53.285156 403.179688 55.472656 400.78125 57.585938 398.3125 C 64 390.914062 70.34375 383.582031 77.394531 376.535156 C 79.789062 374.210938 81.835938 371.25 84.160156 369.484375 C 84.371094 369.34375 84.722656 369.0625 85.289062 369.34375 Z M 167.894531 372.585938 C 173.464844 371.738281 175.15625 377.730469 176.140625 382.59375 C 177.765625 390.351562 178.820312 399.371094 179.597656 407.761719 C 180.375 416.007812 180.375 424.886719 179.949219 433.628906 C 179.738281 437.574219 179.457031 441.808594 179.386719 446.105469 C 179.242188 452.449219 178.609375 458.933594 178.960938 465.769531 C 179.03125 467.882812 179.457031 470.136719 179.386719 472.324219 C 179.316406 473.382812 178.890625 474.859375 178.960938 475.988281 C 179.03125 477.609375 179.878906 478.738281 179.808594 480.289062 C 179.667969 483.671875 177.414062 487.128906 173.816406 488.113281 C 167.683594 489.875 161.128906 483.742188 163.878906 477.046875 C 164.160156 476.414062 164.652344 475.847656 164.796875 475.074219 C 164.9375 473.945312 164.515625 473.097656 164.585938 471.410156 C 164.585938 469.152344 164.9375 466.96875 165.007812 464.925781 C 165.570312 451.8125 164.371094 437.152344 163.3125 422.910156 C 162.75 414.523438 162.75 407.902344 162.679688 399.300781 C 162.609375 395.285156 162.679688 390.421875 162.75 386.1875 C 162.964844 380.339844 162.398438 373.433594 167.894531 372.585938 Z M 220.195312 379.988281 C 218.222656 379.566406 215.332031 376.816406 215.542969 374.421875 C 215.613281 373.363281 216.957031 372.304688 218.082031 373.222656 C 218.644531 373.714844 218.363281 374.347656 218.503906 375.195312 C 218.785156 376.957031 220.691406 378.296875 220.195312 379.988281 Z M 122.011719 373.785156 C 121.800781 374.84375 122.082031 375.757812 121.867188 376.675781 C 119.472656 376.886719 119.257812 371.671875 122.011719 373.785156 Z M 223.722656 382.175781 C 224.425781 382.664062 224.851562 383.867188 224.710938 384.851562 C 224.214844 384.148438 223.296875 383.089844 223.722656 382.175781 Z M 258.542969 383.511719 C 262.699219 384.074219 264.957031 387.53125 267.84375 390.140625 C 270.3125 392.394531 272.496094 394.582031 274.613281 396.691406 C 279.191406 401.203125 283.28125 406.066406 287.300781 410.578125 C 291.527344 415.441406 295.828125 420.023438 299.914062 424.675781 C 303.019531 428.269531 306.261719 431.585938 309.644531 434.96875 C 310.699219 435.953125 311.96875 436.941406 312.746094 438.277344 C 309.714844 436.941406 307.175781 434.683594 304.640625 432.640625 C 297.308594 426.578125 290.683594 419.390625 283.847656 412.621094 C 277.222656 405.925781 270.523438 398.945312 263.96875 391.6875 C 262.980469 390.632812 261.925781 389.363281 260.796875 388.023438 C 259.667969 386.824219 258.261719 385.132812 258.332031 383.867188 C 258.332031 383.652344 258.402344 383.582031 258.542969 383.511719 Z M 138.433594 390.351562 C 139.277344 392.535156 138.785156 394.933594 138.433594 397.117188 C 137.449219 403.53125 135.753906 410.085938 134.136719 416.21875 C 132.582031 422.207031 131.242188 428.835938 129.058594 434.613281 C 128.425781 436.304688 127.578125 438.421875 126.097656 439.128906 C 125.464844 434.757812 126.734375 430.242188 127.648438 425.945312 C 129.34375 417.980469 131.386719 410.015625 133.5 401.769531 C 133.921875 400.007812 134.34375 397.890625 135.050781 395.777344 C 135.683594 393.800781 136.316406 389.925781 138.433594 390.351562 Z M 228.230469 392.675781 C 228.371094 392.675781 228.445312 392.675781 228.585938 392.675781 C 231.753906 396.902344 234.363281 401.695312 237.183594 406.277344 C 240.074219 410.792969 242.964844 415.371094 245.503906 420.09375 C 248.179688 425.027344 250.363281 430.171875 252.480469 435.390625 C 254.03125 439.199219 255.792969 443.144531 257.90625 446.523438 C 258.542969 447.652344 259.808594 448.851562 259.457031 450.335938 C 256.285156 451.320312 254.453125 448.007812 253.113281 446.105469 C 248.53125 439.40625 245.148438 431.9375 241.765625 424.113281 C 237.328125 413.820312 231.472656 404.304688 228.371094 393.027344 C 228.304688 392.957031 228.230469 392.816406 228.230469 392.675781 Z M 114.328125 394.933594 C 114.539062 397.117188 113.058594 399.371094 112.140625 401.0625 C 110.167969 401.132812 112.355469 393.800781 114.328125 394.933594 Z M 316.691406 394.933594 C 318.03125 394.648438 320.710938 395.707031 320.921875 396.976562 C 321.132812 398.101562 320.429688 398.878906 319.230469 398.667969 C 318.59375 398.527344 313.378906 395.566406 316.691406 394.933594 Z M 101.851562 426.085938 C 102.0625 428.410156 101.570312 430.738281 100.9375 432.921875 C 99.59375 438.140625 97.34375 442.792969 95.222656 447.652344 C 94.875 448.429688 94.453125 450.125 93.675781 450.191406 C 92.050781 450.402344 92.476562 448.289062 92.6875 447.300781 C 93.464844 443.917969 94.734375 440.886719 95.789062 437.785156 C 97.410156 433.0625 99.3125 429.257812 101.640625 426.085938 C 101.710938 426.085938 101.78125 426.085938 101.851562 426.085938 Z M 229.503906 465.132812 C 226.964844 463.585938 225.90625 460.625 224.566406 457.734375 C 221.609375 450.96875 218.644531 443.355469 215.964844 435.8125 C 215.542969 434.613281 213.429688 429.328125 216.390625 429.820312 C 217.589844 430.03125 218.292969 432.570312 218.714844 433.699219 C 221.679688 440.816406 224.425781 448.5 227.175781 455.761719 C 228.230469 458.648438 229.644531 461.820312 229.503906 465.132812 Z M 300.765625 45.882812 C 300.90625 45.882812 300.835938 46.023438 300.765625 46.023438 C 296.179688 56.808594 289.625 65.902344 283.210938 75.347656 C 282.296875 76.6875 281.238281 78.308594 279.96875 79.929688 C 279.191406 81.058594 277.644531 84.089844 276.375 84.015625 C 275.246094 84.015625 275.035156 82.816406 275.457031 81.480469 C 276.585938 78.449219 278.347656 76.191406 279.96875 74.007812 C 285.820312 66.253906 291.386719 58.429688 297.167969 50.746094 C 298.367188 49.199219 299.5625 47.152344 300.765625 45.882812 Z M 130.046875 28.542969 C 127.15625 29.53125 126.097656 26.148438 125.324219 23.894531 C 124.476562 21.707031 123.5625 19.382812 122.855469 16.5625 C 121.867188 12.613281 120.8125 9.089844 119.753906 5.070312 C 119.332031 3.308594 118.488281 0.140625 120.671875 -0.00390625 C 122.503906 -0.0703125 123.703125 4.582031 124.335938 6.199219 C 125.183594 8.457031 126.027344 11.203125 126.941406 13.179688 C 128.636719 16.703125 129.128906 20.367188 129.976562 24.808594 C 130.1875 26.074219 130.890625 27.484375 130.046875 28.542969 Z M 212.230469 107.628906 C 213.359375 107.417969 214.980469 107.628906 215.757812 107.910156 C 217.589844 108.757812 219.421875 111.226562 220.550781 114.113281 C 223.085938 116.230469 225.554688 118.484375 227.808594 120.882812 C 229.644531 122.851562 231.546875 124.96875 232.535156 127.152344 C 233.167969 128.492188 233.730469 130.253906 233.097656 132.019531 C 230.277344 132.441406 227.808594 130.960938 225.835938 129.480469 C 223.789062 128.070312 221.960938 126.449219 220.054688 125.113281 L 219.5625 124.6875 C 219.140625 125.113281 218.644531 125.394531 218.082031 125.601562 C 213.359375 127.578125 211.808594 122.996094 209.976562 120.246094 C 209.414062 119.261719 208.851562 118.199219 208.355469 117.003906 L 208 116.792969 C 205.820312 115.453125 203.703125 114.324219 201.589844 113.058594 C 199.472656 111.71875 197.21875 110.519531 194.609375 109.8125 C 189.183594 108.335938 183.894531 108.121094 177.835938 107.628906 C 174.664062 107.347656 171.417969 107.203125 168.320312 107.277344 C 165.429688 107.347656 162.539062 107.066406 159.789062 107.136719 C 156.902344 107.277344 153.871094 107.84375 150.980469 108.265625 C 141.960938 109.464844 134.625 112.140625 126.875 114.679688 C 121.726562 116.371094 116.582031 117.777344 112.140625 120.320312 C 110.730469 124.96875 109.605469 129.902344 108.476562 134.835938 C 113.128906 134.203125 117.21875 132.511719 122.996094 131.738281 C 125.394531 131.382812 128 130.890625 130.46875 130.253906 C 133.007812 129.621094 136.316406 129.832031 136.601562 132.511719 C 136.8125 135.261719 133.5 136.246094 131.386719 136.390625 C 128.28125 136.53125 125.605469 136.953125 123.207031 137.445312 C 119.117188 138.359375 114.960938 138.855469 111.152344 139.488281 C 109.886719 139.632812 108.476562 139.699219 107.277344 139.984375 C 106.152344 140.265625 105.515625 141.390625 104.175781 141.324219 C 102.699219 141.25 101.21875 139.84375 100.722656 138.433594 C 99.3125 134.554688 101.074219 129.480469 102.273438 126.660156 C 103.894531 122.996094 105.871094 120.460938 108.054688 117.917969 C 110.523438 114.960938 112.28125 113.125 116.019531 111.367188 C 119.191406 109.886719 122.433594 108.195312 125.816406 106.855469 C 139.773438 101.285156 157.75 99.242188 174.3125 98.535156 C 180.726562 98.253906 186.996094 99.242188 193.269531 100.230469 C 199.332031 101.144531 204.339844 103.328125 209.132812 106.148438 C 209.976562 106.714844 210.820312 107.203125 211.667969 107.699219 C 211.808594 107.699219 212.019531 107.628906 212.230469 107.628906 Z M 193.765625 282.433594 C 198.277344 281.871094 201.589844 284.832031 201.167969 289.484375 C 200.953125 291.671875 199.898438 294.277344 198.277344 295.6875 C 195.667969 298.011719 191.4375 297.308594 189.535156 294.488281 C 186.714844 290.328125 188.125 283.914062 192.566406 282.574219 C 192.917969 282.433594 193.34375 282.507812 193.765625 282.433594 Z M 174.523438 8.949219 C 176.070312 8.246094 176.214844 10.5 176.355469 11.839844 L 179.171875 68.160156 C 179.386719 71.1875 180.089844 74.710938 176.917969 74.640625 C 173.957031 74.570312 174.382812 71.117188 174.3125 68.441406 C 173.535156 50.183594 174.523438 31.648438 173.816406 13.25 C 173.746094 11.628906 173.605469 9.375 174.523438 8.949219" fill="#ffc857"/></g><g id="change2_1"><path d="M 168.742188 107.066406 C 169.308594 105.9375 170.855469 105.796875 172.054688 105.585938 C 177.0625 104.8125 183.121094 104.8125 188.902344 105.304688 C 190.171875 105.375 193.34375 107.277344 192.847656 108.828125 C 192.496094 109.953125 190.59375 109.390625 189.746094 109.25 C 184.671875 108.6875 178.609375 107.84375 173.042969 107.628906 C 171.703125 107.558594 169.660156 107.980469 168.742188 107.066406 Z M 251.492188 136.035156 C 253.890625 139.417969 256.214844 143.507812 258.332031 147.734375 C 259.316406 149.710938 260.65625 152.035156 259.316406 153.9375 C 260.234375 158.308594 261.222656 164.796875 260.796875 170.996094 C 260.65625 172.761719 260.726562 175.226562 259.527344 175.933594 C 258.613281 176.496094 257.414062 176 256.566406 176.425781 C 256.144531 177.835938 256.355469 179.808594 256.355469 181.570312 C 255.511719 181.640625 254.945312 180.726562 254.242188 180.230469 C 252.125 178.746094 249.660156 177.058594 247.402344 175.648438 C 248.957031 177.761719 251.917969 180.089844 254.453125 182.132812 C 255.371094 182.839844 256.5 183.472656 256.992188 184.105469 C 257.695312 185.023438 258.261719 186.785156 258.683594 188.195312 C 259.035156 189.605469 259.667969 191.648438 259.105469 193.199219 C 258.613281 194.609375 256.851562 194.890625 255.015625 195.175781 C 254.453125 197.78125 255.015625 201.589844 254.664062 204.339844 C 254.664062 204.6875 253.890625 203.984375 253.609375 203.703125 C 251.492188 201.9375 249.378906 199.894531 247.402344 197.851562 C 246.628906 197.078125 245.785156 195.949219 244.585938 196.089844 C 244.304688 196.863281 245.148438 197.5 245.644531 198.0625 C 247.898438 200.601562 250.789062 203.351562 253.46875 205.675781 C 254.523438 206.59375 256.144531 207.648438 256.78125 208.566406 C 258.332031 210.890625 258.542969 217.023438 254.03125 215.332031 C 253.609375 218.289062 253.960938 222.027344 253.328125 224.847656 C 252.761719 224.988281 252.410156 224.285156 252.058594 223.933594 C 249.871094 222.027344 247.613281 219.84375 245.148438 218.082031 C 244.234375 217.378906 243.105469 216.390625 241.835938 216.53125 C 241.976562 218.007812 243.386719 219.140625 244.515625 220.269531 C 246.628906 222.449219 249.167969 224.425781 251.5625 226.46875 C 252.761719 227.527344 254.453125 228.582031 255.15625 229.570312 C 255.933594 230.769531 257.484375 234.925781 256.425781 236.902344 C 255.863281 237.957031 254.3125 238.453125 252.902344 238.523438 C 252.972656 241.554688 252.269531 244.445312 252.480469 247.261719 C 252.125 247.40625 251.84375 246.910156 251.5625 246.695312 C 250.648438 245.851562 249.730469 244.867188 248.746094 243.949219 C 247.402344 242.75 246.066406 241.339844 244.304688 241.199219 C 243.667969 242.539062 245.078125 243.527344 245.855469 244.304688 C 247.546875 245.992188 249.238281 247.476562 251.140625 249.164062 C 252.761719 250.644531 255.296875 252.128906 254.242188 255.648438 C 253.890625 256.847656 252.832031 257.128906 252.058594 257.765625 C 251.917969 261.5 251.351562 264.8125 251 268.269531 C 250.507812 268.550781 250.152344 267.703125 249.730469 267.28125 C 249.308594 266.855469 248.816406 266.363281 248.390625 265.941406 C 248.179688 265.800781 245.925781 263.191406 244.9375 264.179688 C 244.09375 265.023438 245.855469 266.433594 246.417969 266.929688 C 247.402344 267.914062 248.039062 268.480469 248.816406 269.183594 C 250.222656 270.449219 253.046875 272.496094 252.550781 274.613281 C 252.410156 275.457031 251.210938 275.882812 250.578125 276.230469 C 250.152344 278.980469 249.589844 281.660156 249.167969 284.410156 C 248.179688 283.988281 247.472656 283.210938 246.277344 282.363281 C 245.574219 281.800781 243.386719 280.320312 242.964844 282.011719 C 242.542969 283.632812 245.503906 285.324219 246.277344 285.957031 C 246.910156 286.523438 247.546875 287.019531 248.25 287.652344 C 248.816406 288.074219 250.082031 288.988281 250.152344 289.414062 C 250.292969 289.976562 249.589844 291.597656 249.449219 292.515625 C 248.179688 300.339844 247.6875 307.527344 243.175781 312.109375 C 241.835938 291.742188 240.851562 271.019531 239.085938 250.785156 C 238.453125 251.914062 238.875 253.324219 238.875 254.59375 C 239.226562 276.375 242.398438 321.34375 237.539062 338.472656 C 234.363281 349.535156 224.851562 356.375 213.855469 358.628906 C 208.355469 359.757812 202.292969 359.898438 195.105469 360.042969 C 194.398438 373.996094 195.105469 387.953125 195.527344 402.121094 C 196.160156 425.945312 196.515625 449.980469 197.5 473.734375 C 197.640625 476.765625 197.570312 480.640625 194.960938 480.5 C 193.976562 480.429688 193.269531 479.9375 192.636719 479.515625 C 191.933594 479.019531 191.578125 478.035156 190.3125 478.175781 C 190.523438 480.925781 190.664062 488.464844 186.433594 485.929688 C 185.800781 485.503906 185.589844 485.015625 185.238281 484.167969 C 184.953125 483.390625 184.53125 482.613281 184.460938 481.910156 C 184.25 480.289062 184.460938 478.316406 184.460938 476.484375 C 184.109375 453.644531 183.050781 430.808594 183.050781 407.972656 C 183.050781 406.140625 183.050781 404.304688 183.121094 402.613281 C 183.191406 400.921875 183.050781 399.089844 183.542969 397.75 C 183.753906 397.257812 185.027344 395.707031 185.800781 395.707031 C 188.125 395.566406 188.125 399.371094 188.339844 401.554688 C 188.621094 404.445312 188.621094 406.984375 188.761719 409.382812 C 189.113281 409.519531 189.535156 408.886719 190.3125 409.027344 C 190.3125 401.347656 190.101562 393.027344 190.101562 384.921875 C 190.101562 359.6875 162.75 367.511719 163.105469 379.070312 C 163.808594 404.800781 165.078125 477.894531 162.890625 478.175781 C 162.75 479.515625 162.820312 480.640625 161.554688 480.640625 C 158.945312 480.570312 158.3125 427.425781 158.171875 422.773438 C 157.75 413.046875 157.605469 402.824219 157.113281 393.167969 C 157.113281 393.097656 155.984375 360.394531 156.054688 360.183594 C 144 359.828125 120.882812 361.871094 109.605469 358.488281 C 95.4375 354.328125 91.488281 344.675781 90.503906 333.535156 C 89.800781 324.65625 90.714844 316.058594 90.644531 307.457031 C 90.644531 306.1875 90.574219 304.992188 90.363281 303.863281 C 90.148438 302.949219 89.023438 301.675781 88.390625 300.691406 C 86.414062 297.660156 84.441406 293.640625 83.03125 290.398438 C 78.871094 280.671875 78.519531 270.664062 80.988281 260.445312 C 81.761719 257.128906 82.117188 254.59375 83.382812 251.914062 C 84.371094 251.5625 85.003906 250.574219 86.132812 250.152344 C 87.472656 249.589844 89.164062 249.589844 90.363281 248.742188 C 89.585938 247.40625 88.742188 246.34375 87.613281 244.9375 C 86.34375 243.453125 84.160156 241.761719 84.371094 238.523438 C 84.511719 236.621094 85.074219 230.628906 85.992188 229.148438 C 86.835938 227.808594 90.644531 225.691406 92.898438 226.257812 C 91.417969 223.933594 87.050781 219.84375 86.910156 218.433594 C 86.695312 216.601562 87.332031 214.769531 87.613281 212.585938 C 87.824219 210.539062 87.894531 207.4375 89.375 206.660156 C 89.726562 206.519531 95.859375 205.535156 96 205.605469 C 95.363281 204.125 94.238281 203.773438 92.757812 202.785156 C 86.695312 198.558594 88.882812 190.097656 92.828125 185.09375 C 94.027344 183.613281 96.421875 184.882812 97.972656 184.039062 C 97.269531 183.191406 96.351562 182.273438 95.082031 181.921875 C 91.066406 181.214844 90.855469 175.507812 92.40625 171.488281 C 93.179688 169.164062 93.675781 166.90625 99.734375 167.683594 C 98.960938 166.695312 97.765625 165.640625 96.636719 164.441406 C 92.898438 160.285156 93.109375 150.625 100.160156 148.933594 C 101.710938 148.652344 103.121094 148.441406 104.527344 148.089844 C 102.558594 146.46875 101.640625 145.761719 99.875 143.367188 C 96.492188 138.574219 99.03125 128.632812 100.9375 123.417969 C 107.136719 106.855469 115.597656 104.316406 130.257812 98.890625 C 139.558594 95.4375 150.066406 92.96875 161.90625 91.980469 C 176.355469 90.78125 191.652344 91.980469 203.28125 95.648438 C 220.761719 101.214844 241.203125 121.726562 251.492188 136.035156 Z M 244.9375 148.089844 C 223.226562 112.070312 201.238281 96.351562 152.179688 102.625 C 140.40625 104.175781 112.28125 108.757812 106.363281 120.667969 C 104.953125 123.558594 101.21875 136.53125 102.765625 139.910156 C 109.746094 139.207031 119.894531 136.597656 127.296875 135.472656 C 128.988281 135.1875 131.171875 134.695312 132.582031 135.117188 C 134.90625 135.824219 136.8125 140.828125 135.121094 143.648438 C 134.839844 144.140625 133.992188 144.917969 133.359375 145.199219 C 131.03125 146.324219 128 146.746094 124.972656 147.382812 C 117.359375 149.007812 108.828125 150.90625 101.144531 152.246094 C 96.421875 153.09375 96.566406 159.367188 98.328125 160.707031 C 105.515625 159.648438 113.339844 157.535156 120.742188 156.476562 C 124.195312 155.984375 129.625 154.714844 131.242188 156.898438 C 131.949219 157.816406 132.230469 159.929688 132.019531 161.269531 C 131.59375 164.371094 128.636719 164.65625 125.816406 165.425781 C 124.546875 165.78125 123.277344 166.132812 122.011719 166.34375 C 113.835938 167.472656 105.023438 169.164062 97.199219 170.292969 C 96 172.195312 95.4375 175.933594 96.777344 178.042969 C 104.671875 177.058594 112.140625 175.578125 120.179688 174.730469 C 124.054688 172.621094 128.425781 174.945312 129.058594 178.257812 C 129.832031 182.484375 124.828125 184.246094 121.445312 184.882812 C 115.03125 186.148438 107.632812 186.148438 101.074219 186.996094 C 99.664062 187.210938 97.972656 187.210938 97.128906 187.5625 C 95.222656 188.335938 93.535156 196.515625 95.015625 198.628906 C 99.523438 197.640625 104.601562 197.003906 109.464844 196.300781 C 111.011719 196.089844 113.199219 195.453125 114.539062 195.949219 C 116.441406 196.65625 116.9375 201.9375 116.019531 203.914062 C 114.398438 207.4375 107.699219 207.085938 103.1875 207.789062 C 99.875 208.355469 96.777344 209.058594 94.027344 209.480469 C 93.253906 210.890625 91.910156 212.585938 91.984375 214.628906 C 92.050781 216.109375 92.898438 217.234375 93.324219 218.503906 C 100.722656 218.148438 108.054688 216.601562 115.242188 215.898438 C 117.359375 215.613281 120.882812 214.769531 122.785156 215.542969 C 125.957031 216.882812 126.097656 225.058594 122.785156 226.398438 C 121.800781 226.75 120.246094 226.820312 118.976562 227.03125 C 109.886719 228.65625 99.949219 228.722656 91.207031 230.484375 C 89.304688 232.953125 89.519531 237.675781 90.925781 240.496094 C 98.75 240.425781 109.253906 237.535156 117.429688 238.238281 C 118.347656 238.308594 120.035156 239.578125 120.460938 240.214844 C 122.011719 242.683594 121.519531 246.273438 120.105469 247.6875 C 118.273438 249.589844 115.101562 249.941406 111.507812 250.292969 C 103.121094 250.929688 94.238281 251.066406 88.035156 253.605469 C 86.976562 255.933594 86.769531 258.753906 86.34375 261.640625 C 85.992188 264.601562 85.429688 267.5625 85.710938 270.59375 C 86.273438 276.585938 87.398438 282.152344 89.234375 286.664062 C 89.164062 282.785156 88.175781 278.414062 89.023438 275.175781 C 89.726562 272.636719 92.195312 270.382812 94.660156 270.027344 C 100.441406 269.183594 100.441406 274.613281 100.160156 279.6875 C 99.808594 287.511719 101.074219 293.289062 102.839844 299.28125 C 107.488281 315.070312 135.261719 316.832031 148.726562 318.03125 C 157.675781 318.878906 168.246094 319.300781 177.484375 318.597656 C 182.558594 318.242188 189.113281 318.171875 187.351562 312.601562 C 185.589844 313.027344 182.980469 313.378906 181.21875 313.660156 C 166.839844 315.492188 101.570312 314.996094 104.8125 298.785156 C 105.164062 297.027344 107.488281 297.941406 108.6875 298.363281 C 107.699219 293.570312 105.09375 275.949219 107.839844 271.863281 C 109.535156 269.324219 113.695312 267.140625 117.78125 269.535156 C 119.824219 270.664062 119.894531 273.835938 119.683594 276.9375 C 119.472656 279.898438 119.542969 283.066406 119.542969 286.171875 C 119.542969 289.203125 120.035156 292.09375 120.316406 294.910156 C 120.601562 297.660156 121.023438 300.550781 122.011719 302.804688 C 122.925781 305.0625 123.769531 307.527344 125.816406 308.445312 C 124.476562 305.484375 122.925781 301.675781 122.292969 297.589844 C 124.195312 297.871094 126.171875 298.082031 128.140625 298.226562 C 126.734375 290.046875 123.632812 272.496094 131.386719 268.832031 C 134.765625 267.210938 138.785156 269.464844 139.136719 272.285156 C 139.351562 274.328125 138.996094 276.65625 138.996094 279.191406 C 138.925781 283.988281 139.066406 289.414062 139.773438 294.417969 C 140.195312 297.097656 143.4375 310.347656 146.890625 310.558594 C 145.765625 306.753906 143.648438 302.949219 142.871094 298.507812 C 145.621094 298.644531 148.511719 298.578125 151.402344 298.578125 C 149.148438 291.386719 146.679688 278.488281 149.359375 271.15625 C 150.132812 268.972656 154.644531 266.785156 157.890625 268.410156 C 158.875 268.902344 159.929688 270.59375 160.496094 271.722656 C 163.105469 276.9375 155.5625 294.84375 167.683594 307.457031 C 168.601562 308.445312 169.800781 309.921875 171.84375 309.640625 C 171.914062 308.515625 170.855469 307.742188 170.222656 306.964844 C 168.035156 304.566406 166.417969 301.394531 165.359375 298.363281 C 169.871094 298.011719 174.523438 297.730469 179.03125 297.378906 C 177.203125 293.359375 176 288.003906 176.917969 282.433594 C 177.695312 278.0625 178.960938 272.144531 183.472656 271.15625 C 185.941406 270.59375 189.253906 272.214844 191.4375 271.019531 C 192.847656 270.308594 193.554688 267.773438 194.046875 265.941406 C 194.75 263.757812 195.175781 261.429688 195.386719 259.457031 C 197.078125 260.304688 198.769531 261.148438 200.390625 262.0625 C 201.941406 262.980469 203.492188 264.390625 205.253906 264.601562 C 205.113281 263.546875 203.984375 262.980469 203.28125 262.34375 C 200.886719 260.230469 198.277344 258.753906 195.527344 257.128906 C 185.871094 251.492188 174.3125 247.121094 162.890625 246.839844 C 157.394531 246.695312 151.050781 246.628906 145.554688 246.910156 C 141.464844 247.191406 136.8125 248.390625 134.484375 244.65625 C 132.726562 241.835938 133.992188 237.324219 136.882812 235.984375 C 138.363281 235.351562 140.550781 235.277344 142.523438 234.996094 C 151.613281 233.796875 160.28125 233.730469 168.53125 234.855469 C 177.695312 236.058594 186.363281 237.746094 194.820312 244.089844 C 195.386719 244.515625 196.089844 245.289062 196.515625 245.078125 C 196.867188 242.46875 196.9375 240.425781 197.289062 237.746094 C 198.910156 238.59375 205.820312 242.328125 206.453125 242.964844 C 206.59375 241.058594 189.605469 230.347656 187.5625 229.5 C 180.441406 226.328125 172.125 224.285156 162.539062 223.863281 C 159.4375 223.648438 156.265625 223.863281 153.164062 223.933594 C 151.261719 224.003906 138.574219 224.707031 137.800781 224.496094 C 134.0625 223.507812 133.640625 213.21875 139.136719 213.359375 C 142.945312 213.289062 160.921875 210.46875 173.816406 212.792969 C 179.171875 213.710938 183.613281 215.191406 187.773438 216.882812 C 191.4375 218.289062 194.890625 220.410156 197.714844 222.59375 C 198.066406 222.875 198.417969 223.4375 198.980469 223.300781 C 199.121094 220.972656 199.261719 218.644531 199.472656 216.390625 C 200.8125 217.09375 201.941406 218.148438 203.28125 218.996094 C 204.480469 219.773438 205.890625 220.832031 207.4375 220.617188 C 207.4375 218.996094 205.820312 218.007812 204.621094 217.09375 C 199.542969 213.148438 193.835938 208.425781 187.5625 206.097656 C 176.847656 202.011719 164.867188 201.09375 149.289062 202.152344 C 147.664062 202.222656 144.777344 200.953125 144 199.402344 C 142.449219 196.089844 144.425781 192.777344 146.75 191.863281 C 150.980469 190.238281 158.03125 189.605469 164.160156 189.675781 C 174.3125 189.816406 184.320312 192.070312 191.507812 195.597656 C 196.441406 197.992188 200.8125 201.304688 200.8125 201.304688 C 201.308594 198.203125 201.449219 195.453125 201.941406 192.285156 C 203.351562 193.199219 204.832031 194.113281 206.242188 195.101562 C 207.507812 195.949219 208.917969 197.78125 210.679688 197.429688 C 210.820312 195.878906 209.132812 194.890625 208.140625 194.113281 C 189.535156 179.664062 177.414062 176.777344 153.519531 179.808594 C 151.261719 180.089844 148.160156 180.511719 145.554688 180.652344 C 142.589844 180.792969 140.265625 180.585938 139.351562 177.269531 C 138.714844 175.015625 139.84375 172.40625 141.464844 171.421875 C 148.796875 166.90625 166.0625 165.425781 180.796875 168.175781 C 189.890625 169.871094 197.640625 173.671875 202.714844 177.835938 C 202.785156 177.976562 203.28125 178.679688 203.28125 178.183594 C 203.703125 175.367188 203.84375 174.59375 204.265625 171.773438 C 206.945312 173.816406 209.765625 175.859375 212.445312 177.902344 C 213.289062 178.609375 213.996094 179.949219 215.332031 179.738281 C 215.757812 178.398438 214.207031 177.621094 213.429688 176.917969 C 192.355469 159.085938 182.910156 156.054688 152.953125 159.578125 C 150.628906 160.070312 147.03125 161.058594 144.636719 160.351562 C 143.367188 160.003906 141.394531 158.027344 141.253906 156.832031 C 140.761719 153.867188 143.226562 151.050781 145.339844 150.414062 C 147.597656 149.710938 150.414062 149.429688 153.164062 149.074219 C 155.914062 148.722656 158.800781 148.371094 161.554688 148.160156 C 180.300781 147.101562 188.902344 146.746094 205.113281 157.816406 C 205.113281 155.066406 205.464844 152.742188 205.605469 150.203125 C 208.636719 152.320312 211.667969 154.855469 214.769531 157.179688 C 215.191406 157.460938 217.378906 159.648438 218.082031 158.589844 C 218.644531 157.675781 216.320312 156.195312 215.613281 155.632812 C 208 148.792969 201.800781 143.859375 192.214844 140.125 C 179.667969 135.328125 166.980469 137.234375 154.292969 139.769531 C 152.601562 140.125 149.710938 141.183594 148.160156 141.109375 C 146.398438 140.96875 144.214844 139.277344 143.648438 137.65625 C 142.589844 134.554688 145.058594 131.453125 147.175781 130.609375 C 153.304688 128.210938 170.925781 126.308594 177.132812 125.882812 C 187.773438 125.039062 195.738281 127.296875 204.621094 133.144531 C 205.324219 133.640625 206.03125 134.34375 206.59375 134.273438 C 206.59375 132.792969 206.59375 131.3125 206.59375 129.832031 C 202.855469 127.085938 198.277344 124.335938 193.835938 122.289062 C 190.875 120.949219 184.109375 117.992188 190.101562 114.890625 C 191.933594 113.972656 194.257812 113.621094 196.515625 113.832031 C 199.898438 114.042969 203.492188 115.734375 206.453125 117.144531 C 213.996094 120.601562 220.480469 125.394531 226.609375 130.394531 C 240.003906 141.390625 227.386719 197.78125 230.277344 197.710938 C 232.742188 198.628906 237.890625 144.917969 237.960938 141.109375 C 240.425781 143.226562 242.683594 146.183594 244.9375 148.089844 Z M 212.230469 240.425781 C 213.007812 267.210938 212.585938 295.335938 213.078125 322.046875 C 205.679688 325.359375 196.300781 326.488281 186.152344 326.914062 C 201.238281 335.792969 169.589844 340.867188 168.390625 341.148438 C 170.222656 341.359375 171.84375 343.402344 173.535156 343.6875 C 175.226562 344.039062 177.695312 343.6875 179.738281 343.617188 C 196.300781 342.84375 207.578125 344.675781 213.21875 326.417969 C 213.5 342.699219 207.015625 346.71875 192.988281 346.71875 C 187.84375 346.71875 182.488281 346.507812 177.414062 346.574219 C 171.277344 346.71875 114.117188 348.550781 108.121094 346.011719 C 97.269531 343.054688 98.890625 327.546875 98.328125 323.386719 C 98.1875 322.824219 96.777344 321.839844 96.351562 321.34375 C 95.578125 320.566406 95.929688 319.511719 95.15625 319.722656 C 95.015625 320.921875 94.027344 330.292969 96.28125 338.683594 C 97.832031 344.464844 101.144531 349.820312 106.363281 351.441406 C 110.097656 352.640625 199.542969 352.78125 206.03125 350.664062 C 219.210938 346.363281 218.929688 331.847656 218.929688 320.496094 C 218.929688 310.417969 218.859375 298.996094 218.644531 289.0625 C 218.292969 273.484375 216.742188 230.769531 219.210938 216.8125 C 220.195312 211.453125 221.183594 209.976562 224.496094 207.933594 C 224.851562 207.648438 225.976562 207.4375 225.34375 207.226562 C 215.683594 208.847656 213.21875 217.445312 212.726562 226.46875 C 212.445312 231.332031 212.164062 236.339844 212.230469 240.425781 Z M 227.386719 229.148438 C 227.667969 231.683594 230.558594 235.492188 233.449219 233.449219 C 237.183594 230.769531 235.984375 226.046875 233.730469 223.933594 C 230.980469 221.394531 226.609375 222.238281 227.386719 229.148438 Z M 225.132812 267.632812 C 224.425781 268.691406 223.4375 270.027344 223.296875 270.945312 C 222.875 273.058594 223.507812 275.246094 223.367188 277.148438 C 225.484375 271.722656 229.148438 267.140625 231.898438 262.0625 C 234.648438 256.988281 236.902344 251.492188 240.074219 246.839844 C 234.648438 253.113281 229.925781 260.445312 225.132812 267.632812 Z M 225.0625 279.898438 C 224.496094 281.097656 223.367188 282.507812 223.15625 283.5625 C 222.945312 284.476562 223.226562 285.605469 223.296875 286.664062 C 223.4375 290.117188 223.085938 293.148438 223.367188 296.460938 C 225.273438 295.050781 225.90625 292.304688 226.894531 289.625 C 231.121094 278.558594 236.054688 266.433594 238.523438 254.238281 C 234.082031 263.121094 229.359375 270.734375 225.0625 279.898438 Z M 227.949219 327.683594 C 224.355469 334.3125 220.339844 339.808594 217.449219 346.574219 C 216.601562 348.410156 215.261719 349.820312 214.628906 351.652344 C 220.761719 347.917969 224.917969 342.210938 228.726562 336.214844 C 232.460938 330.085938 235 322.609375 235.5625 313.519531 C 235.5625 313.449219 235.5625 313.378906 235.421875 313.378906 C 233.167969 318.382812 230.417969 322.964844 227.949219 327.683594 Z M 174.171875 330.085938 C 169.449219 329.027344 164.726562 327.96875 160.144531 327.121094 C 157.816406 326.699219 155.421875 325.855469 153.164062 325.570312 C 140.902344 323.882812 127.648438 323.320312 115.453125 321.839844 C 115.3125 329.804688 115.597656 341.21875 118.628906 344.675781 C 131.59375 344.253906 144.777344 344.746094 157.675781 344.253906 C 157.253906 343.546875 156.335938 342.699219 156.265625 341.359375 C 156.125 339.601562 157.183594 338.328125 158.171875 337.625 C 159.226562 336.851562 160.988281 336.003906 162.679688 335.441406 C 166.769531 333.890625 172.546875 333.535156 177.625 333.183594 C 178.46875 333.183594 179.949219 333.605469 180.230469 332.410156 C 178.539062 331.28125 176.355469 330.578125 174.171875 330.085938 Z M 177.835938 423.761719 C 181.359375 422.910156 180.726562 431.652344 180.9375 434.96875 C 181.21875 439.761719 181.289062 444.199219 181.5 448.429688 C 181.78125 455.339844 181.925781 461.890625 182.136719 469.011719 C 182.207031 471.617188 181.996094 473.804688 180.019531 473.875 C 176.777344 473.945312 177.695312 466.542969 177.484375 462.808594 C 177.273438 458.367188 177.132812 454.277344 176.917969 449.558594 C 176.566406 442.089844 176.285156 437.222656 176.285156 429.398438 C 176.285156 426.792969 175.929688 424.183594 177.835938 423.761719 Z M 178.820312 407.265625 C 178.398438 409.027344 179.597656 411.003906 178.679688 412.480469 C 177.835938 411.847656 176.140625 409.519531 176.285156 407.832031 C 176.355469 406.558594 177.976562 405.925781 178.820312 407.265625 Z M 166.417969 399.867188 C 167.472656 399.726562 167.542969 402.050781 167.683594 403.671875 C 168.742188 426.863281 168.460938 450.683594 170.082031 473.523438 C 170.222656 475.144531 171.207031 478.242188 168.671875 478.316406 C 166.203125 478.316406 164.371094 411.566406 166.136719 400.21875 C 166.203125 400.074219 166.277344 399.9375 166.417969 399.867188 Z M 167.332031 383.867188 C 166.34375 383.582031 165.640625 379.917969 167.683594 380.199219 C 168.601562 380.902344 167.96875 383.089844 167.332031 383.867188 Z M 181.5 378.789062 C 181.5 369.695312 190.664062 381.328125 186.996094 384.21875 C 182.769531 387.601562 181.5 382.3125 181.5 378.789062 Z M 105.09375 257.976562 C 105.023438 258.398438 104.460938 258.472656 104.035156 258.539062 C 102.839844 258.753906 100.652344 258.753906 100.160156 258.1875 C 100.652344 256.566406 103.964844 257.554688 105.09375 257.976562 Z M 126.171875 257.484375 C 128.636719 252.902344 162.679688 252.269531 166.625 252.902344 C 168.601562 253.253906 170.785156 253.605469 172.832031 254.382812 C 174.3125 254.945312 177.132812 256.355469 176.636719 258.1875 C 176.285156 259.457031 171.136719 258.046875 165.855469 257.414062 C 160.355469 256.707031 154.644531 256.707031 153.730469 256.707031 C 150.554688 256.707031 127.71875 258.328125 126.171875 257.484375 Z M 127.648438 191.648438 C 129.691406 191.4375 131.734375 193.410156 131.03125 196.160156 C 130.890625 196.796875 130.1875 197.429688 129.832031 198.203125 C 129.269531 199.191406 129.625 199.613281 128.847656 200.035156 C 127.226562 200.882812 125.464844 199.613281 124.828125 198.628906 C 123.277344 196.019531 124.476562 192.003906 127.648438 191.648438 Z M 131.242188 187.210938 C 132.019531 186.996094 133.289062 187.140625 133.921875 187.421875 C 137.589844 188.972656 139.558594 194.890625 137.800781 200.035156 C 136.601562 203.351562 134.277344 205.816406 131.808594 206.945312 C 129.832031 207.859375 123.84375 208.425781 124.054688 205.109375 C 124.125 204.125 124.828125 203.488281 125.605469 203.351562 C 127.15625 203.136719 127.859375 204.339844 129.410156 204.125 C 133.359375 203.703125 135.121094 197.5 133.148438 193.550781 C 132.726562 192.777344 131.949219 191.863281 131.386719 191.296875 C 130.679688 190.660156 129.691406 190.097656 129.691406 188.972656 C 129.691406 187.84375 130.328125 187.492188 131.242188 187.210938 Z M 177.0625 112.496094 C 179.171875 112.070312 180.9375 113.902344 179.457031 115.664062 C 178.539062 116.863281 174.171875 117.570312 173.746094 116.019531 C 173.253906 114.183594 175.859375 112.703125 177.0625 112.496094 Z M 161.269531 112.140625 C 162.890625 112.070312 167.613281 111.71875 167.542969 113.339844 C 167.542969 114.253906 165.640625 114.464844 164.585938 114.679688 C 160.921875 115.453125 157.113281 115.734375 153.519531 116.230469 C 142.871094 117.570312 129.832031 121.234375 119.402344 124.40625 C 118.554688 124.6875 117.640625 125.113281 116.441406 125.601562 C 115.523438 126.023438 113.761719 126.519531 113.128906 125.882812 C 111.507812 124.195312 114.890625 121.164062 115.808594 120.527344 C 124.546875 114.183594 150.628906 112.140625 160.988281 112.140625 C 161.128906 112.140625 161.128906 112.140625 161.269531 112.140625" fill="#ffc857"/></g></g></svg>